<svg viewBox="0 0 1024 1024" xmlns="http://www.w3.org/2000/svg"><path d="M501.63 553.977h1.545c-3.658-8.745-8.4-17.243-13.96-24.972L133.555 325.93c-11.83 4.147-19.41 16.607-19.41 35.497V676.31c0 33.084 23.226 73.314 51.876 89.858l293.386 169.418c17.418 10.058 32.82 9.03 42.228-.747V553.977h-.002zM321.557 775.484L263 741.674v-61.367l58.556 33.81v61.367zm49.797-135.705c-4.218 6.414-11.41 11.8-21.572 16.16l-10.38 3.83c-7.352 2.88-12.165 5.85-14.435 8.905-2.27 2.942-3.406 6.998-3.406 12.17v7.757L263 654.795v-8.448c0-9.423 1.784-16.725 5.352-21.905 3.568-5.295 11.084-10.265 22.546-14.91l10.38-4.003c6.164-2.418 10.65-5.458 13.462-9.122 2.92-3.6 4.38-8.045 4.38-13.33 0-8.045-2.596-15.806-7.786-23.285-5.19-7.594-12.437-14.075-21.736-19.444-8.76-5.058-18.222-8.567-28.386-10.528-10.165-2.076-20.762-2.506-31.792-1.29v-54.128c13.085 2.728 25.034 6.064 35.847 10.01s21.247 8.82 31.305 14.626c26.385 15.235 46.5 32.593 60.34 52.077 13.843 19.37 20.763 40.028 20.763 61.98.002 11.257-2.106 20.153-6.324 26.682zm496.19-375.887L562.534 87.458c-28.637-16.566-75.066-16.566-103.705 0L153.823 263.893c-24.432 14.132-28.002 35.753-10.744 52.085l338.49 193.274c18.67 4.666 40.005 4.634 58.638-.104l338.857-193.91c16.376-16.242 12.54-37.427-11.523-51.345zm-345.777 69.45l-7.37-4.13c-8.222-4.604-13.47-9.81-15.743-15.616-2.374-5.862-1.978-15.183 1.188-27.965l3.043-11.478c1.77-6.834 1.944-12.437.518-16.807-1.302-4.438-4.26-7.948-8.873-10.532-7.02-3.932-15.425-5.346-25.217-4.24-9.893 1.048-20.11 4.524-30.65 10.43-9.926 5.56-18.945 12.523-27.057 20.887-8.21 8.307-15.258 17.817-21.142 28.528l-47.225-26.46c10.618-10.667 21.05-19.995 31.3-27.984s21.076-15.176 32.472-21.562c29.903-16.753 57.712-26.716 83.425-29.886 25.613-3.227 47.996.525 67.148 11.252 9.826 5.506 16.26 11.787 19.302 18.846 2.942 7.003 3.114 16.232.518 27.685l-3.192 11.395c-2.116 8.152-2.557 14.015-1.32 17.592 1.135 3.52 3.96 6.545 8.472 9.072l6.77 3.79-66.364 37.184zm75.802 42.467l-53.544-29.997 66.363-37.18 53.544 29.997-66.362 37.18zm290.342-50.238l-353.92 202.53c-5.872 8.01-10.87 16.877-14.68 26.014v378.888c9.196 11.45 25.388 13.238 43.842 2.583L856.537 766.17c28.65-16.545 51.875-56.775 51.875-89.86V361.43c0-19.464-8.047-32.108-20.502-35.858zm-147.2 432.2l-58.556 33.807v-61.37l58.557-33.808v61.37zm49.798-193.207c-4.218 11.284-11.41 24.975-21.572 41.072l-10.382 15.82c-7.353 11.37-12.166 19.894-14.436 25.572-2.27 5.562-3.406 10.93-3.406 16.1v7.76l-58.557 33.806v-8.448c0-9.423 1.784-18.786 5.352-28.086 3.568-9.415 11.084-23.063 22.546-40.943l10.38-15.992c6.164-9.535 10.65-17.757 13.462-24.666 2.92-6.973 4.38-13.102 4.38-18.39 0-8.044-2.596-12.808-7.786-14.293-5.19-1.6-12.438.285-21.737 5.654-8.76 5.058-18.222 12.473-28.386 22.25-10.165 9.663-20.762 21.47-31.792 35.423V563.08c13.085-12.383 25.034-22.843 35.847-31.386 10.813-8.54 21.248-15.716 31.306-21.522 26.385-15.233 46.5-21.1 60.34-17.6 13.843 3.386 20.763 16.055 20.763 38.005.004 11.26-2.104 22.59-6.322 33.99z"/></svg>